<?xml version="1.0" standalone="no"?><!DOCTYPE svg PUBLIC "-//W3C//DTD SVG 1.1//EN"
        "http://www.w3.org/Graphics/SVG/1.1/DTD/svg11.dtd">
<svg class="icon" width="60px" height="60px" viewBox="0 0 1024 1024" version="1.1"
     xmlns="http://www.w3.org/2000/svg">
    <path fill="#DE5B4D"
          d="M998.2464 241.89952c-15.86176-36.82304-38.6048-69.74464-67.3792-98.048-28.7744-28.18048-62.16704-50.20672-99.47136-65.72032-38.48192-15.98464-79.21664-24.03328-121.25184-24.03328-58.37824 0-115.34336 15.98464-164.84352 46.1824a306.576384 306.576384 0 0 0-33.7408 23.808 310.48192 310.48192 0 0 0-33.75104-23.808c-49.50016-30.19776-106.45504-46.1824-164.83328-46.1824-42.04544 0-82.76992 8.05888-121.26208 24.03328-37.18144 15.40096-70.68672 37.53984-99.47136 65.72032-28.88704 28.30336-51.5072 61.21472-67.3792 98.048C8.40704 280.14592 0 320.768 0 362.55744c0 39.43424 8.05888 80.52736 24.03328 122.32704 13.38368 34.93888 32.5632 71.168 57.07776 107.75552C119.95136 650.5472 173.35296 710.94272 239.6672 772.15744c109.88544 101.4784 218.71616 171.58144 223.3344 174.42816l28.06784 18.00192c12.43136 7.936 28.416 7.936 40.84736 0l28.06784-18.00192c4.61824-2.95936 113.32608-72.94976 223.3344-174.42816 66.31424-61.21472 119.71584-121.61024 158.55616-179.51744 24.51456-36.58752 43.81696-72.82688 57.07776-107.75552 15.98464-41.79968 24.04352-82.8928 24.04352-122.32704 0.11264-41.78944-8.2944-82.41152-24.75008-120.65792zM511.55968 870.92224S89.99936 600.81152 89.99936 362.55744c0-120.66816 99.81952-218.4704 222.976-218.4704 86.55872 0 161.6384 48.31232 198.58432 118.8864 36.94592-70.57408 112.01536-118.8864 198.58432-118.8864 123.15648 0 222.976 97.81248 222.976 218.4704-0.01024 238.26432-421.56032 508.3648-421.56032 508.3648z m0 0"/>
</svg>