<?xml version="1.0" standalone="no"?><!DOCTYPE svg PUBLIC "-//W3C//DTD SVG 1.1//EN"
        "http://www.w3.org/Graphics/SVG/1.1/DTD/svg11.dtd">
<svg class="icon" width="60px" height="60px" viewBox="0 0 1025 1024" version="1.1"
     xmlns="http://www.w3.org/2000/svg">
    <path fill="#C3C3C3"
          d="M410.0096 512.37888c0 56.60672 45.88544 102.51264 102.5024 102.51264 56.60672 0 102.51264-45.89568 102.51264-102.51264 0-36.61824-19.53792-70.46144-51.26144-88.77056a102.508544 102.508544 0 0 0-102.5024 0c-31.71328 18.30912-51.2512 52.15232-51.2512 88.77056z m-410.0096 0c0 56.60672 45.88544 102.51264 102.5024 102.51264 56.60672 0 102.5024-45.89568 102.5024-102.51264s-45.89568-102.5024-102.5024-102.5024c-56.61696 0-102.5024 45.89568-102.5024 102.5024z m820.0192 0c0 56.60672 45.89568 102.51264 102.5024 102.51264 56.61696 0 102.51264-45.89568 102.51264-102.51264s-45.89568-102.5024-102.51264-102.5024c-56.60672 0-102.5024 45.89568-102.5024 102.5024z m0 0"/>
</svg>