<?xml version="1.0" standalone="no"?><!DOCTYPE svg PUBLIC "-//W3C//DTD SVG 1.1//EN"
        "http://www.w3.org/Graphics/SVG/1.1/DTD/svg11.dtd">
<svg class="icon" width="60px" height="60px" viewBox="0 0 1024 1024" version="1.1"
     xmlns="http://www.w3.org/2000/svg">
    <path fill="#C3C3C3"
          d="M981.3504 642.05824l-74.61888-63.78496c3.5328-21.64736 5.35552-43.73504 5.35552-65.8432 0-22.09792-1.82272-44.20608-5.35552-65.8432l74.61888-63.7952c11.49952-9.78944 15.7184-25.74336 10.58816-40.09984l-1.024-2.95936c-20.61312-57.51808-51.13856-110.37696-90.7776-157.0816l-2.05824-2.39616a36.598784 36.598784 0 0 0-39.9872-10.82368l-92.61056 32.9216c-34.17088-28.02688-72.33536-50.1248-113.5616-65.60768L634.04032 39.936c-2.73408-14.91968-14.46912-26.54208-29.3888-29.27616l-3.072-0.5632C542.22848-0.6144 479.81568-0.6144 420.46464 10.09664l-3.072 0.5632c-14.91968 2.73408-26.65472 14.35648-29.3888 29.27616l-17.99168 97.28c-40.89856 15.49312-78.82752 37.46816-112.77312 65.3824l-93.2864-33.14688c-14.24384-5.00736-30.18752-0.79872-39.97696 10.82368l-2.05824 2.39616c-39.63904 46.81728-70.17472 99.67616-90.78784 157.0816l-1.024 2.95936c-5.12 14.24384-0.91136 30.18752 10.5984 40.09984l75.52 64.47104c-3.5328 21.41184-5.24288 43.28448-5.24288 65.04448 0 21.87264 1.71008 43.73504 5.24288 65.04448L40.704 641.8432c-11.50976 9.79968-15.7184 25.74336-10.5984 40.09984l1.024 2.95936c20.61312 57.41568 51.13856 110.37696 90.78784 157.0816l2.05824 2.39616c9.78944 11.50976 25.63072 15.83104 39.97696 10.82368l93.2864-33.14688c33.9456 27.91424 71.87456 50.01216 112.77312 65.3824l17.99168 97.28c2.73408 14.91968 14.46912 26.54208 29.3888 29.27616l3.072 0.5632c29.73696 5.35552 60.14976 8.0896 90.56256 8.0896 30.4128 0 60.93824-2.73408 90.55232-8.0896l3.072-0.5632c14.91968-2.73408 26.65472-14.34624 29.3888-29.27616l17.88928-96.8192c41.22624-15.49312 79.39072-37.4784 113.5616-65.61792l92.61056 32.9216c14.24384 5.00736 30.18752 0.79872 39.9872-10.82368l2.05824-2.39616c39.63904-46.81728 70.16448-99.67616 90.7776-157.0816l1.024-2.95936c5.12-14.0288 0.91136-29.97248-10.5984-39.8848zM825.86624 460.032c2.84672 17.19296 4.33152 34.85696 4.33152 52.51072 0 17.65376-1.47456 35.30752-4.33152 52.51072l-7.51616 45.68064 85.08416 72.79616c-12.87168 29.72672-29.15328 57.7536-48.52736 83.83488l-105.70752-37.4784-35.76832 29.3888c-27.22816 22.3232-57.52832 39.86432-90.33728 52.1728l-43.39712 16.2816-20.38784 110.4896c-32.01024 3.64544-64.69632 3.64544-96.8192 0L442.10176 827.4944l-43.0592-16.51712c-32.4608-12.30848-62.64832-29.8496-89.6512-52.06016l-35.76832-29.50144-106.3936 37.81632c-19.36384-26.08128-35.54304-54.2208-48.52736-83.83488l85.99552-73.472-7.40352-45.568c-2.73408-16.97792-4.21888-34.51904-4.21888-51.83488 0-17.42848 1.37216-34.85696 4.21888-51.82464l7.40352-45.568-85.99552-73.472c12.87168-29.72672 29.16352-57.7536 48.52736-83.83488l106.3936 37.81632 35.76832-29.50144c27.00288-22.21056 57.18016-39.75168 89.6512-52.04992l43.17184-16.29184 20.38784-110.72512c32.01024-3.64544 64.69632-3.64544 96.8192 0l20.38784 110.4896 43.39712 16.29184c32.68608 12.29824 63.10912 29.83936 90.32704 52.16256l35.76832 29.3888 105.70752-37.4784c19.36384 26.08128 35.54304 54.2208 48.52736 83.84512l-85.0944 72.78592 7.424 45.47584zM511.1296 300.66688c-110.71488 0-200.47872 89.76384-200.47872 200.47872 0 110.72512 89.76384 200.47872 200.47872 200.47872 110.72512 0 200.47872-89.76384 200.47872-200.47872s-89.7536-200.47872-200.47872-200.47872z m90.2144 290.70336c-24.14592 24.04352-56.15616 37.36576-90.2144 37.36576-34.05824 0-66.06848-13.32224-90.2144-37.36576-24.03328-24.14592-37.35552-56.15616-37.35552-90.2144 0-34.05824 13.32224-66.06848 37.35552-90.2144 24.14592-24.14592 56.15616-37.35552 90.2144-37.35552 34.05824 0 66.06848 13.2096 90.2144 37.35552 24.04352 24.14592 37.36576 56.15616 37.36576 90.2144 0 34.05824-13.32224 66.06848-37.36576 90.2144z m0 0"/>
</svg>